<?xml version="1.0" encoding="UTF-8"?>
<svg xmlns="http://www.w3.org/2000/svg" xmlns:xlink="http://www.w3.org/1999/xlink" width="32px" height="32px" viewBox="0 0 32 32" version="1.1">
<g id="surface1">
<path style=" stroke:none;fill-rule:nonzero;fill:rgb(0%,0%,0%);fill-opacity:1;" d="M 32.019531 12.195312 C 32.019531 18.808594 32.019531 25.414062 32.019531 32.019531 C 21.351562 32.019531 10.683594 32.019531 0.0195312 32.019531 C 0.0195312 21.351562 0.0195312 10.683594 0.0195312 0.0195312 C 10.683594 0.0195312 21.351562 0.0195312 32.019531 0.0195312 C 32.019531 4.074219 32.019531 8.128906 32.019531 12.195312 M 19.953125 2.730469 C 19.910156 2.714844 19.871094 2.703125 19.828125 2.691406 C 19.414062 2.574219 18.992188 2.472656 18.566406 2.398438 C 18.316406 2.355469 18.070312 2.308594 17.820312 2.277344 C 17.546875 2.242188 17.265625 2.21875 16.988281 2.199219 C 16.777344 2.183594 16.566406 2.167969 16.355469 2.167969 C 16.09375 2.164062 15.832031 2.175781 15.570312 2.175781 C 15.34375 2.179688 15.117188 2.191406 14.890625 2.210938 C 14.527344 2.242188 14.164062 2.285156 13.804688 2.34375 C 13.296875 2.425781 12.792969 2.535156 12.296875 2.675781 C 11.769531 2.820312 11.253906 3 10.746094 3.207031 C 10.238281 3.417969 9.742188 3.65625 9.261719 3.925781 C 8.699219 4.246094 8.15625 4.601562 7.636719 4.996094 C 7.191406 5.335938 6.761719 5.699219 6.363281 6.097656 C 6.121094 6.335938 5.886719 6.585938 5.65625 6.839844 C 5.265625 7.269531 4.914062 7.730469 4.585938 8.210938 C 4.167969 8.820312 3.804688 9.460938 3.488281 10.128906 C 3.167969 10.808594 2.90625 11.507812 2.699219 12.230469 C 2.535156 12.804688 2.410156 13.390625 2.324219 13.984375 C 2.242188 14.535156 2.191406 15.085938 2.179688 15.640625 C 2.171875 16.109375 2.167969 16.574219 2.214844 17.042969 C 2.246094 17.34375 2.269531 17.644531 2.308594 17.945312 C 2.359375 18.375 2.445312 18.800781 2.542969 19.222656 C 2.664062 19.730469 2.816406 20.230469 2.992188 20.722656 C 3.222656 21.367188 3.503906 21.992188 3.828125 22.597656 C 4.167969 23.226562 4.558594 23.828125 4.992188 24.398438 C 5.339844 24.859375 5.714844 25.300781 6.125 25.710938 C 6.382812 25.96875 6.648438 26.21875 6.921875 26.460938 C 7.445312 26.933594 8.007812 27.347656 8.601562 27.722656 C 9.09375 28.039062 9.605469 28.320312 10.132812 28.566406 C 10.59375 28.78125 11.0625 28.972656 11.542969 29.136719 C 12.171875 29.351562 12.8125 29.519531 13.464844 29.644531 C 14 29.746094 14.542969 29.808594 15.085938 29.851562 C 15.277344 29.867188 15.472656 29.875 15.664062 29.878906 C 16.128906 29.878906 16.59375 29.886719 17.058594 29.839844 C 17.308594 29.816406 17.5625 29.796875 17.816406 29.765625 C 18.34375 29.703125 18.863281 29.601562 19.378906 29.472656 C 19.855469 29.355469 20.328125 29.210938 20.789062 29.042969 C 21.421875 28.8125 22.035156 28.535156 22.625 28.214844 C 23.160156 27.925781 23.671875 27.601562 24.164062 27.246094 C 24.699219 26.855469 25.210938 26.433594 25.683594 25.964844 C 25.925781 25.726562 26.160156 25.476562 26.390625 25.226562 C 26.75 24.832031 27.078125 24.414062 27.382812 23.980469 C 27.835938 23.328125 28.234375 22.648438 28.570312 21.933594 C 28.800781 21.4375 29.007812 20.9375 29.179688 20.417969 C 29.375 19.835938 29.53125 19.242188 29.644531 18.640625 C 29.734375 18.167969 29.800781 17.695312 29.839844 17.21875 C 29.863281 16.90625 29.882812 16.59375 29.890625 16.28125 C 29.898438 15.902344 29.894531 15.519531 29.859375 15.140625 C 29.839844 14.921875 29.824219 14.699219 29.804688 14.480469 C 29.765625 14.0625 29.695312 13.648438 29.613281 13.234375 C 29.496094 12.664062 29.34375 12.101562 29.152344 11.546875 C 28.917969 10.867188 28.636719 10.207031 28.300781 9.570312 C 28.023438 9.046875 27.714844 8.542969 27.375 8.0625 C 26.960938 7.46875 26.503906 6.910156 25.996094 6.394531 C 25.707031 6.097656 25.40625 5.8125 25.09375 5.539062 C 24.664062 5.15625 24.203125 4.8125 23.722656 4.496094 C 23.15625 4.117188 22.5625 3.777344 21.945312 3.488281 C 21.304688 3.183594 20.648438 2.929688 19.953125 2.730469 Z M 19.953125 2.730469 "/>
<path style=" stroke:none;fill-rule:nonzero;fill:rgb(65.882355%,0%,98.823529%);fill-opacity:1;" d="M 19.960938 2.730469 C 20.648438 2.929688 21.304688 3.183594 21.945312 3.488281 C 22.5625 3.777344 23.15625 4.117188 23.722656 4.496094 C 24.203125 4.8125 24.664062 5.15625 25.09375 5.539062 C 25.40625 5.8125 25.707031 6.097656 25.996094 6.394531 C 26.503906 6.910156 26.960938 7.46875 27.375 8.0625 C 27.714844 8.542969 28.023438 9.046875 28.300781 9.570312 C 28.636719 10.207031 28.917969 10.867188 29.152344 11.546875 C 29.34375 12.101562 29.496094 12.664062 29.613281 13.234375 C 29.695312 13.648438 29.765625 14.0625 29.804688 14.480469 C 29.824219 14.699219 29.839844 14.921875 29.859375 15.140625 C 29.894531 15.519531 29.898438 15.902344 29.890625 16.28125 C 29.882812 16.59375 29.863281 16.90625 29.839844 17.21875 C 29.800781 17.695312 29.734375 18.167969 29.644531 18.640625 C 29.53125 19.242188 29.375 19.835938 29.179688 20.417969 C 29.007812 20.9375 28.800781 21.4375 28.570312 21.933594 C 28.234375 22.648438 27.835938 23.328125 27.382812 23.980469 C 27.078125 24.414062 26.75 24.832031 26.390625 25.226562 C 26.160156 25.476562 25.925781 25.726562 25.683594 25.964844 C 25.210938 26.433594 24.699219 26.855469 24.164062 27.246094 C 23.671875 27.601562 23.160156 27.925781 22.625 28.214844 C 22.035156 28.535156 21.421875 28.8125 20.789062 29.042969 C 20.328125 29.210938 19.855469 29.355469 19.378906 29.472656 C 18.863281 29.601562 18.34375 29.703125 17.816406 29.765625 C 17.5625 29.796875 17.308594 29.816406 17.058594 29.839844 C 16.59375 29.886719 16.128906 29.878906 15.664062 29.878906 C 15.472656 29.875 15.277344 29.867188 15.085938 29.851562 C 14.542969 29.808594 14 29.746094 13.464844 29.644531 C 12.8125 29.519531 12.171875 29.351562 11.542969 29.136719 C 11.0625 28.972656 10.59375 28.78125 10.132812 28.566406 C 9.605469 28.320312 9.09375 28.039062 8.601562 27.722656 C 8.007812 27.347656 7.445312 26.933594 6.921875 26.460938 C 6.648438 26.21875 6.382812 25.96875 6.125 25.710938 C 5.714844 25.300781 5.339844 24.859375 4.992188 24.398438 C 4.558594 23.828125 4.167969 23.226562 3.828125 22.597656 C 3.503906 21.992188 3.222656 21.367188 2.992188 20.722656 C 2.816406 20.230469 2.664062 19.730469 2.542969 19.222656 C 2.445312 18.800781 2.359375 18.375 2.308594 17.945312 C 2.269531 17.644531 2.246094 17.34375 2.214844 17.042969 C 2.167969 16.574219 2.171875 16.109375 2.179688 15.640625 C 2.191406 15.085938 2.242188 14.535156 2.324219 13.984375 C 2.410156 13.390625 2.535156 12.804688 2.699219 12.230469 C 2.90625 11.507812 3.167969 10.808594 3.488281 10.128906 C 3.804688 9.460938 4.167969 8.820312 4.585938 8.210938 C 4.914062 7.730469 5.265625 7.269531 5.65625 6.839844 C 5.886719 6.585938 6.121094 6.335938 6.363281 6.097656 C 6.761719 5.699219 7.191406 5.335938 7.636719 4.996094 C 8.15625 4.601562 8.699219 4.246094 9.261719 3.925781 C 9.742188 3.65625 10.238281 3.417969 10.746094 3.207031 C 11.253906 3 11.769531 2.820312 12.296875 2.675781 C 12.792969 2.535156 13.296875 2.425781 13.804688 2.34375 C 14.164062 2.285156 14.527344 2.242188 14.890625 2.210938 C 15.117188 2.191406 15.34375 2.179688 15.570312 2.175781 C 15.832031 2.175781 16.09375 2.164062 16.355469 2.167969 C 16.566406 2.167969 16.777344 2.183594 16.988281 2.199219 C 17.265625 2.21875 17.546875 2.242188 17.820312 2.277344 C 18.070312 2.308594 18.316406 2.355469 18.566406 2.398438 C 18.992188 2.472656 19.414062 2.574219 19.828125 2.691406 C 19.871094 2.703125 19.910156 2.714844 19.960938 2.730469 M 27.425781 23.089844 C 27.921875 22.292969 28.328125 21.453125 28.648438 20.570312 C 28.917969 19.820312 29.121094 19.050781 29.253906 18.261719 C 29.34375 17.71875 29.402344 17.171875 29.425781 16.621094 C 29.445312 16.164062 29.445312 15.703125 29.417969 15.246094 C 29.382812 14.648438 29.308594 14.058594 29.195312 13.46875 C 28.980469 12.332031 28.617188 11.246094 28.113281 10.203125 C 27.308594 8.539062 26.203125 7.097656 24.804688 5.886719 C 23.679688 4.910156 22.425781 4.140625 21.042969 3.585938 C 19.628906 3.011719 18.160156 2.695312 16.636719 2.628906 C 15.605469 2.582031 14.582031 2.652344 13.566406 2.84375 C 12.460938 3.050781 11.398438 3.386719 10.375 3.863281 C 9.21875 4.40625 8.15625 5.097656 7.195312 5.941406 C 5.789062 7.179688 4.683594 8.644531 3.886719 10.339844 C 3.15625 11.898438 2.746094 13.539062 2.644531 15.257812 C 2.609375 15.898438 2.621094 16.535156 2.675781 17.175781 C 2.722656 17.730469 2.804688 18.28125 2.917969 18.828125 C 3.121094 19.773438 3.421875 20.683594 3.820312 21.5625 C 4.394531 22.824219 5.148438 23.972656 6.078125 25 C 6.824219 25.832031 7.664062 26.554688 8.59375 27.175781 C 9.558594 27.824219 10.59375 28.335938 11.695312 28.710938 C 12.804688 29.09375 13.949219 29.320312 15.121094 29.398438 C 15.816406 29.445312 16.507812 29.4375 17.199219 29.378906 C 17.75 29.332031 18.296875 29.25 18.839844 29.136719 C 20.148438 28.855469 21.386719 28.390625 22.554688 27.738281 C 23.46875 27.226562 24.308594 26.617188 25.082031 25.914062 C 25.988281 25.082031 26.765625 24.144531 27.425781 23.089844 Z M 27.425781 23.089844 "/>
<path style=" stroke:none;fill-rule:nonzero;fill:rgb(0%,0%,0%);fill-opacity:1;" d="M 27.421875 23.097656 C 26.765625 24.144531 25.988281 25.082031 25.082031 25.914062 C 24.308594 26.617188 23.46875 27.226562 22.554688 27.738281 C 21.386719 28.390625 20.148438 28.855469 18.839844 29.136719 C 18.296875 29.25 17.75 29.332031 17.199219 29.378906 C 16.507812 29.4375 15.816406 29.445312 15.121094 29.398438 C 13.949219 29.320312 12.804688 29.09375 11.695312 28.710938 C 10.59375 28.335938 9.558594 27.824219 8.59375 27.175781 C 7.664062 26.554688 6.824219 25.832031 6.078125 25 C 5.148438 23.972656 4.394531 22.824219 3.820312 21.5625 C 3.421875 20.683594 3.121094 19.773438 2.917969 18.828125 C 2.804688 18.28125 2.722656 17.730469 2.675781 17.175781 C 2.621094 16.535156 2.609375 15.898438 2.644531 15.257812 C 2.746094 13.539062 3.15625 11.898438 3.886719 10.339844 C 4.683594 8.644531 5.789062 7.179688 7.195312 5.941406 C 8.15625 5.097656 9.21875 4.40625 10.375 3.863281 C 11.398438 3.386719 12.460938 3.050781 13.566406 2.84375 C 14.582031 2.652344 15.605469 2.582031 16.636719 2.628906 C 18.160156 2.695312 19.628906 3.011719 21.042969 3.585938 C 22.425781 4.140625 23.679688 4.910156 24.804688 5.886719 C 26.203125 7.097656 27.308594 8.539062 28.113281 10.203125 C 28.617188 11.246094 28.980469 12.332031 29.195312 13.46875 C 29.308594 14.058594 29.382812 14.648438 29.417969 15.246094 C 29.445312 15.703125 29.445312 16.164062 29.425781 16.621094 C 29.402344 17.171875 29.34375 17.71875 29.253906 18.261719 C 29.121094 19.050781 28.917969 19.820312 28.648438 20.570312 C 28.328125 21.453125 27.921875 22.292969 27.421875 23.097656 M 16.269531 10.511719 C 14.992188 13.5 13.710938 16.488281 12.425781 19.492188 C 10.757812 15.5625 9.09375 11.652344 7.4375 7.75 C 7.109375 7.75 6.792969 7.75 6.476562 7.75 C 6.476562 12.050781 6.476562 16.347656 6.476562 20.648438 C 6.738281 20.648438 6.996094 20.648438 7.261719 20.648438 C 7.261719 16.9375 7.261719 13.234375 7.261719 9.527344 C 7.269531 9.527344 7.277344 9.527344 7.28125 9.523438 C 8.855469 13.234375 10.429688 16.945312 12 20.648438 C 12.300781 20.648438 12.589844 20.648438 12.886719 20.648438 C 13.667969 18.792969 14.445312 16.9375 15.226562 15.078125 C 16.007812 13.222656 16.789062 11.363281 17.570312 9.507812 C 17.578125 9.507812 17.585938 9.507812 17.59375 9.511719 C 17.59375 13.222656 17.59375 16.933594 17.59375 20.648438 C 17.871094 20.648438 18.140625 20.648438 18.414062 20.648438 C 18.414062 16.347656 18.414062 12.050781 18.414062 7.75 C 18.089844 7.75 17.773438 7.75 17.453125 7.75 C 17.058594 8.667969 16.667969 9.585938 16.269531 10.511719 M 23.0625 18.835938 C 23.0625 18.539062 23.0625 18.242188 23.0625 17.945312 C 23 17.945312 22.949219 17.945312 22.890625 17.945312 C 22.890625 18.722656 22.890625 19.492188 22.890625 20.261719 C 22.882812 20.261719 22.878906 20.265625 22.871094 20.265625 C 22.328125 19.492188 21.785156 18.714844 21.242188 17.945312 C 21.183594 17.945312 21.128906 17.945312 21.074219 17.945312 C 21.074219 18.847656 21.074219 19.746094 21.074219 20.644531 C 21.132812 20.644531 21.1875 20.644531 21.238281 20.644531 C 21.242188 20.636719 21.242188 20.632812 21.242188 20.632812 C 21.246094 19.875 21.246094 19.117188 21.246094 18.359375 C 21.246094 18.351562 21.246094 18.347656 21.25 18.339844 C 21.25 18.339844 21.25 18.335938 21.253906 18.332031 C 21.253906 18.332031 21.257812 18.332031 21.269531 18.324219 C 21.816406 19.097656 22.367188 19.875 22.914062 20.648438 C 22.964844 20.648438 23.007812 20.648438 23.0625 20.648438 C 23.0625 20.046875 23.0625 19.453125 23.0625 18.835938 M 23.449219 20.148438 C 23.449219 19.90625 23.449219 19.664062 23.449219 19.410156 C 23.550781 19.410156 23.644531 19.410156 23.734375 19.410156 C 23.816406 19.410156 23.910156 19.390625 23.980469 19.425781 C 24.042969 19.457031 24.082031 19.542969 24.128906 19.605469 C 24.378906 19.933594 24.628906 20.261719 24.878906 20.589844 C 24.898438 20.613281 24.921875 20.644531 24.945312 20.648438 C 25.003906 20.65625 25.0625 20.652344 25.140625 20.652344 C 24.796875 20.195312 24.46875 19.753906 24.136719 19.3125 C 24.46875 18.855469 24.800781 18.40625 25.136719 17.941406 C 25.09375 17.941406 25.066406 17.941406 25.042969 17.9375 C 24.953125 17.921875 24.902344 17.960938 24.851562 18.03125 C 24.582031 18.410156 24.304688 18.78125 24.035156 19.160156 C 23.996094 19.214844 23.953125 19.234375 23.890625 19.230469 C 23.769531 19.226562 23.648438 19.230469 23.527344 19.230469 C 23.503906 19.230469 23.480469 19.226562 23.449219 19.222656 C 23.449219 18.792969 23.449219 18.367188 23.449219 17.9375 C 23.410156 17.9375 23.382812 17.9375 23.351562 17.9375 C 23.328125 17.9375 23.300781 17.941406 23.273438 17.941406 C 23.273438 18.847656 23.273438 19.746094 23.273438 20.648438 C 23.332031 20.648438 23.386719 20.648438 23.449219 20.648438 C 23.449219 20.484375 23.449219 20.324219 23.449219 20.148438 M 18.953125 17.9375 C 18.902344 17.957031 18.925781 18.003906 18.925781 18.035156 C 18.921875 18.875 18.921875 19.714844 18.921875 20.554688 C 18.921875 20.582031 18.925781 20.613281 18.929688 20.648438 C 19.386719 20.648438 19.839844 20.648438 20.296875 20.648438 C 20.296875 20.585938 20.296875 20.53125 20.296875 20.464844 C 19.902344 20.464844 19.515625 20.464844 19.113281 20.464844 C 19.113281 20.246094 19.113281 20.039062 19.113281 19.832031 C 19.113281 19.621094 19.113281 19.414062 19.113281 19.203125 C 19.113281 18.992188 19.113281 18.777344 19.113281 18.566406 C 19.113281 18.359375 19.113281 18.152344 19.113281 17.9375 C 19.054688 17.9375 19.011719 17.9375 18.953125 17.9375 M 20.539062 20.351562 C 20.539062 20.449219 20.539062 20.546875 20.539062 20.648438 C 20.574219 20.652344 20.601562 20.652344 20.628906 20.652344 C 20.65625 20.652344 20.6875 20.648438 20.71875 20.648438 C 20.71875 19.742188 20.71875 18.84375 20.71875 17.941406 C 20.65625 17.941406 20.601562 17.941406 20.539062 17.941406 C 20.539062 18.742188 20.539062 19.535156 20.539062 20.351562 Z M 20.539062 20.351562 "/>
<path style=" stroke:none;fill-rule:nonzero;fill:rgb(66.274512%,0%,99.215686%);fill-opacity:1;" d="M 16.273438 10.507812 C 16.667969 9.585938 17.058594 8.667969 17.453125 7.75 C 17.773438 7.75 18.089844 7.75 18.414062 7.75 C 18.414062 12.050781 18.414062 16.347656 18.414062 20.648438 C 18.140625 20.648438 17.871094 20.648438 17.59375 20.648438 C 17.59375 16.933594 17.59375 13.222656 17.59375 9.511719 C 17.585938 9.507812 17.578125 9.507812 17.570312 9.507812 C 16.789062 11.363281 16.007812 13.222656 15.226562 15.078125 C 14.445312 16.9375 13.667969 18.792969 12.886719 20.648438 C 12.589844 20.648438 12.300781 20.648438 12 20.648438 C 10.429688 16.945312 8.855469 13.234375 7.28125 9.523438 C 7.277344 9.527344 7.269531 9.527344 7.261719 9.527344 C 7.261719 13.234375 7.261719 16.9375 7.261719 20.648438 C 6.996094 20.648438 6.738281 20.648438 6.476562 20.648438 C 6.476562 16.347656 6.476562 12.050781 6.476562 7.75 C 6.792969 7.75 7.109375 7.75 7.4375 7.75 C 9.09375 11.652344 10.757812 15.5625 12.425781 19.492188 C 13.710938 16.488281 14.992188 13.5 16.273438 10.507812 Z M 16.273438 10.507812 "/>
<path style=" stroke:none;fill-rule:nonzero;fill:rgb(64.313728%,0%,96.470588%);fill-opacity:1;" d="M 23.0625 18.84375 C 23.0625 19.453125 23.0625 20.046875 23.0625 20.648438 C 23.007812 20.648438 22.964844 20.648438 22.914062 20.648438 C 22.367188 19.875 21.816406 19.097656 21.269531 18.324219 C 21.257812 18.332031 21.253906 18.332031 21.253906 18.332031 C 21.25 18.335938 21.25 18.339844 21.25 18.339844 C 21.246094 18.347656 21.246094 18.351562 21.246094 18.359375 C 21.246094 19.117188 21.246094 19.875 21.242188 20.632812 C 21.242188 20.632812 21.242188 20.636719 21.238281 20.644531 C 21.1875 20.644531 21.132812 20.644531 21.074219 20.644531 C 21.074219 19.746094 21.074219 18.847656 21.074219 17.945312 C 21.128906 17.945312 21.183594 17.945312 21.242188 17.945312 C 21.785156 18.714844 22.328125 19.492188 22.871094 20.265625 C 22.878906 20.265625 22.882812 20.261719 22.890625 20.261719 C 22.890625 19.492188 22.890625 18.722656 22.890625 17.945312 C 22.949219 17.945312 23 17.945312 23.0625 17.945312 C 23.0625 18.242188 23.0625 18.539062 23.0625 18.84375 Z M 23.0625 18.84375 "/>
<path style=" stroke:none;fill-rule:nonzero;fill:rgb(64.313728%,0%,96.470588%);fill-opacity:1;" d="M 23.449219 20.15625 C 23.449219 20.324219 23.449219 20.484375 23.449219 20.648438 C 23.386719 20.648438 23.332031 20.648438 23.273438 20.648438 C 23.273438 19.746094 23.273438 18.847656 23.273438 17.941406 C 23.300781 17.941406 23.328125 17.9375 23.351562 17.9375 C 23.382812 17.9375 23.410156 17.9375 23.449219 17.9375 C 23.449219 18.367188 23.449219 18.792969 23.449219 19.222656 C 23.480469 19.226562 23.503906 19.230469 23.527344 19.230469 C 23.648438 19.230469 23.769531 19.226562 23.890625 19.230469 C 23.953125 19.234375 23.996094 19.214844 24.035156 19.160156 C 24.304688 18.78125 24.582031 18.410156 24.851562 18.03125 C 24.902344 17.960938 24.953125 17.921875 25.042969 17.9375 C 25.066406 17.941406 25.09375 17.941406 25.136719 17.941406 C 24.800781 18.40625 24.46875 18.855469 24.136719 19.3125 C 24.46875 19.753906 24.796875 20.195312 25.140625 20.652344 C 25.0625 20.652344 25.003906 20.65625 24.945312 20.648438 C 24.921875 20.644531 24.898438 20.613281 24.878906 20.589844 C 24.628906 20.261719 24.378906 19.933594 24.128906 19.605469 C 24.082031 19.542969 24.042969 19.457031 23.980469 19.425781 C 23.910156 19.390625 23.816406 19.410156 23.734375 19.410156 C 23.644531 19.410156 23.550781 19.410156 23.449219 19.410156 C 23.449219 19.664062 23.449219 19.90625 23.449219 20.15625 Z M 23.449219 20.15625 "/>
<path style=" stroke:none;fill-rule:nonzero;fill:rgb(64.313728%,0%,96.862745%);fill-opacity:1;" d="M 18.960938 17.9375 C 19.011719 17.9375 19.054688 17.9375 19.113281 17.9375 C 19.113281 18.152344 19.113281 18.359375 19.113281 18.566406 C 19.113281 18.777344 19.113281 18.992188 19.113281 19.203125 C 19.113281 19.414062 19.113281 19.621094 19.113281 19.832031 C 19.113281 20.039062 19.113281 20.246094 19.113281 20.464844 C 19.515625 20.464844 19.902344 20.464844 20.296875 20.464844 C 20.296875 20.53125 20.296875 20.585938 20.296875 20.648438 C 19.839844 20.648438 19.386719 20.648438 18.929688 20.648438 C 18.925781 20.613281 18.921875 20.582031 18.921875 20.554688 C 18.921875 19.714844 18.921875 18.875 18.925781 18.035156 C 18.925781 18.003906 18.902344 17.957031 18.960938 17.9375 Z M 18.960938 17.9375 "/>
<path style=" stroke:none;fill-rule:nonzero;fill:rgb(64.313728%,0%,96.078432%);fill-opacity:1;" d="M 20.539062 20.339844 C 20.539062 19.535156 20.539062 18.742188 20.539062 17.941406 C 20.601562 17.941406 20.65625 17.941406 20.71875 17.941406 C 20.71875 18.84375 20.71875 19.742188 20.71875 20.648438 C 20.6875 20.648438 20.65625 20.652344 20.628906 20.652344 C 20.601562 20.652344 20.574219 20.652344 20.539062 20.648438 C 20.539062 20.546875 20.539062 20.449219 20.539062 20.339844 Z M 20.539062 20.339844 "/>
</g>
</svg>
